<svg xmlns="http://www.w3.org/2000/svg" viewBox="0 0 64 64" width="64" height="64">
  <rect width="64" height="64" rx="16" fill="#2D5F3F"></rect>
  <g fill="none" stroke="#FAF8F5" stroke-width="2.4">
    <rect x="6" y="6" width="14" height="14" rx="3"></rect>
    <rect x="44" y="6" width="14" height="14" rx="3"></rect>
    <rect x="6" y="44" width="14" height="14" rx="3"></rect>
  </g>
  <g fill="#FAF8F5">
    <rect x="10" y="10" width="6" height="6" rx="1"></rect>
    <rect x="48" y="10" width="6" height="6" rx="1"></rect>
    <rect x="10" y="48" width="6" height="6" rx="1"></rect>
    <rect x="30" y="22" width="4" height="4"></rect>
    <rect x="30" y="38" width="4" height="4"></rect>
    <rect x="22" y="30" width="4" height="4"></rect>
    <rect x="38" y="30" width="4" height="4"></rect>
    <rect x="26" y="26" width="4" height="4"></rect>
    <rect x="34" y="26" width="4" height="4"></rect>
    <rect x="26" y="34" width="4" height="4"></rect>
    <rect x="34" y="34" width="4" height="4"></rect>
    <rect x="30" y="30" width="4" height="4"></rect>
  </g>
  <circle cx="32" cy="32" r="1.6" fill="#D4A24C"></circle>
</svg>